 <svg class="svg" xmlns="http://www.w3.org/2000/svg" version="1.1" xlink="http://www.w3.org/1999/xlink" xmlns:svgjs="http://svgjs.com/svgjs" width="30%" height="30%" viewBox="5 13.038996696472168 90.0040054321289 73.9100112915039"><g fill="url(#SvgjsLinearGradient1010)"><path d="M92.117 31.277a3.754 3.754 0 0 1-4.168 2.363l-1.54-1.898a6.857 6.857 0 0 0 2.766-.61 6.779 6.779 0 0 0 3.579-3.812l-2.883-1.09a3.734 3.734 0 0 1-1.965 2.094 3.734 3.734 0 0 1-2.871.09l-1.91-.723-4.989-6.144-27.293-8.508-31.195 30.848-4.84 7.95-2.417 2.624a3.734 3.734 0 0 1-2.606 1.207 3.724 3.724 0 0 1-2.695-.988L5 56.942a6.8 6.8 0 0 0 4.629 1.804 6.809 6.809 0 0 0 5.027-2.199l1.102-1.195 3.156 9.797-2.648 8.152 2.761 13.648h7.832l-.98-5.738h-2.137l.195-4.836 1.985-5.356 7.945-4.992 3.367-7.777 15.418-8.739 9.707 4.825-2.168 4.773-6.714-1.898-3.31 5.507 5.017 1.399 1.433-1.953 5.098 2.402 9.055-9.055L69.629 50l-5.961-6.739 5.781-3.277v7.356L76.012 50l3.191-3.989 6.55-4.253 1.485-5.118c.457.094.914.145 1.368.145a6.844 6.844 0 0 0 6.398-4.418z"></path></g><defs><linearGradient gradientUnits="userSpaceOnUse" id="SvgjsLinearGradient1010" x1="9.023498535156262" y1="90.97250652313232" x2="90.98050689697266" y2="9.015498161315916"><stop stop-color="#f7fa04" offset="0.05"></stop><stop stop-color="#903931" offset="0.95"></stop></linearGradient></defs></svg>